<?xml version="1.0" encoding="utf-8"?>
<!-- Generator: Adobe Illustrator 22.0.1, SVG Export Plug-In . SVG Version: 6.00 Build 0)  -->
<svg version="1.1" id="圖層_1" xmlns="http://www.w3.org/2000/svg" xmlns:xlink="http://www.w3.org/1999/xlink" x="0px" y="0px"
	 viewBox="0 0 240 60" style="enable-background:new 0 0 240 60;" xml:space="preserve">
<style type="text/css">
	.st0{fill:url(#SVGID_1_);}
</style>
<g>
	
		<linearGradient id="SVGID_1_" gradientUnits="userSpaceOnUse" x1="241.2952" y1="60" x2="241.2952" y2="0" gradientTransform="matrix(-1 0 0 1 361.2952 0)">
		<stop  offset="0" style="stop-color:#FFFFFF;stop-opacity:0.5"/>
		<stop  offset="1" style="stop-color:#FFFFFF"/>
	</linearGradient>
	<path class="st0" d="M28.2,47.5c14.5,0.7,29.1-5.5,41-17.5C81.9,17.3,95.4-3,110,4.6c5,2.6,9,8.4,13.9,11.4
		C140.2,26,157,3.1,174.6,0.2c4.4-0.7,9.7,0.5,11.7,6.2c3,8.5-1.5,28.1,9.2,28.8c2.6,0.2,5.1-1.5,7.6-2.6c2.5-1,5.6-1.3,7.5,1.3
		c1.3,1.8,1.8,4.5,2.6,6.9c1.9,5.5,5.6,9.4,9.5,11.5c4,2.2,10.9,6.5,15.2,7.2C170,58,70,61.1,2.2,59.6C9.2,51.4,19.2,47.1,28.2,47.5
		z"/>
</g>
</svg>
