<?xml version="1.0" encoding="utf-8"?>
<!-- Generator: Adobe Illustrator 22.0.1, SVG Export Plug-In . SVG Version: 6.00 Build 0)  -->
<svg version="1.1" id="圖層_1" xmlns="http://www.w3.org/2000/svg" xmlns:xlink="http://www.w3.org/1999/xlink" x="0px" y="0px"
	 viewBox="0 0 270 120" style="enable-background:new 0 0 270 120;" xml:space="preserve">
<style type="text/css">
	.st0{fill:url(#SVGID_1_);}
	.st1{fill:url(#SVGID_2_);}
	.st2{fill:url(#SVGID_3_);}
	.st3{fill:url(#SVGID_4_);}
</style>
<g>
	<linearGradient id="SVGID_1_" gradientUnits="userSpaceOnUse" x1="9.094947e-13" y1="84.5637" x2="125.393" y2="84.5637">
		<stop  offset="0" style="stop-color:#FFFFFF;stop-opacity:0.5"/>
		<stop  offset="1" style="stop-color:#FFFFFF"/>
	</linearGradient>
	<path class="st0" d="M124.6,94.9c-3.8-1.4-9.5-3.9-13.3-3.9c-12.1-2-25.2-1.2-37.1-1.9c-3.1-0.6-6-1.5-8.9-3
		c-5.2-2.6-9.4-6.6-14.3-9.7C36.4,67.1,14.6,67,1.7,79.8c-4.4,4.4,0.4,13.3,6.5,9.7c2-1.2,3.9-2.3,5.8-3.2c0.4,0.4,0.8,0.8,1.4,1.1
		c15.8,8.7,33.4,11.7,51.3,12c9.4,0.1,18.8-0.3,28.2-0.3c9.6-0.1,19.4,0.9,28.9-0.4C125.7,98.3,125.8,96,124.6,94.9z"/>
	<linearGradient id="SVGID_2_" gradientUnits="userSpaceOnUse" x1="110.2429" y1="26.3009" x2="270" y2="26.3009">
		<stop  offset="0" style="stop-color:#FFFFFF;stop-opacity:0.5"/>
		<stop  offset="1" style="stop-color:#FFFFFF"/>
	</linearGradient>
	<path class="st1" d="M269.9,12.3C267.5-0.4,248.1-2.1,239.6,5c-3.8,3.2-6.3,8.2-6,13.2c-2.6-0.2-5.3-0.8-8.4-1.3
		c-6.2-1-15.5-0.3-16.4,7.7c0,0.2,0,0.5,0,0.7c-31.8,1.3-63.5,5.4-95,9.4c-2.7,0.3-4.9,3.7-2.4,5.9c6.3,5.6,13.7,5.5,21.8,5
		c12.7-0.9,25.3-1.7,38-2.2c4-0.2,8-0.5,12.1-0.8c13.1,0.6,26.2,1.3,39.2,2.1c4.1,2.6,8.1,5.6,13.4,6.6c7,1.4,14.5-0.4,20.2-4.7
		c4.1-3.1,8.2-8.8,5.2-13.7c1.4-0.6,2.7-1.4,3.9-2.5c4.1-3.7,5.2-9.6,3.3-14.7C269.4,15.1,270.2,13.8,269.9,12.3z"/>
	<linearGradient id="SVGID_3_" gradientUnits="userSpaceOnUse" x1="207.259" y1="102.4433" x2="258.0433" y2="102.4433">
		<stop  offset="0" style="stop-color:#FFFFFF;stop-opacity:0.5"/>
		<stop  offset="1" style="stop-color:#FFFFFF"/>
	</linearGradient>
	<path class="st2" d="M250.8,97c-4.5-7.8-12.5-11.2-21.4-9.9c-7.9,1.1-18.3,6.7-21.4,14.5c-2.9,7.4,3.1,14.2,10.8,13.3
		c9.4-1.1,16.4-13.4,21.1-20.6c3.4-5.3-4.6-11.6-8.8-6.8c-4.4,5-16.8,16.1-7,22.1c8.7,5.4,17.1-3.1,22-9.6c-3.5-0.5-7-0.9-10.5-1.4
		c0.4,2.2,0.2,4.4-0.6,6.6c-1.6,6,5.5,9.4,9.8,5.7c0.9-0.8,1.9-1.6,2.8-2.4c-2.4,0.3-4.8,0.6-7.2,0.9c0.1,0.1,0.2,0.1,0.2,0.2
		c1.9-2.5,3.8-5,5.8-7.6c-9,0.3-18,0.5-27,0.8c0,4,0,8,0,11.9c10.8-0.3,21,1.1,31.4,4.1c7.4,2.1,10.4-9.2,3.2-11.4
		c-11.2-3.5-22.8-4.9-34.5-4.6c-7.7,0.2-7.7,12.2,0,11.9c9-0.3,18-0.5,27-0.8c3.7-0.1,7-3.7,5.8-7.6c-1.1-3.3-2.7-5.5-5.7-7.3
		c-2.3-1.4-5.3-0.9-7.2,0.9c-0.9,0.8-1.8,1.7-2.7,2.5c3.3,1.9,6.6,3.8,9.8,5.7c1-4.4,1.1-8.3,0.3-12.8c-0.9-5.4-7.9-4.9-10.5-1.4
		c-1.3,1.8-4.6,6.9-7.2,5c0.9,1.6,1.9,3.3,2.8,4.9c0-1.7,6-7.3,7.2-8.7c-2.9-2.3-5.9-4.5-8.8-6.8c-2.3,3.6-4.8,7.1-7.6,10.4
		c-2.5,2.9-6,6.8-0.3,2.5c7-5.3,16.4-6.7,23.5-0.6C248.5,103.1,252.7,100.3,250.8,97L250.8,97z"/>
	<linearGradient id="SVGID_4_" gradientUnits="userSpaceOnUse" x1="142.8114" y1="89.0416" x2="163.9306" y2="89.0416">
		<stop  offset="0" style="stop-color:#FFFFFF;stop-opacity:0.5"/>
		<stop  offset="1" style="stop-color:#FFFFFF"/>
	</linearGradient>
	<path class="st3" d="M163,86.8c-4.4-4.5-11.5-4.8-16-0.9c-0.2,0-0.5,0-0.7,0.1c-3.1,0.4-4.6,3.5-2.5,6c2.3,2.7,6.1,3.8,9.4,2.5
		c1.1-0.4,1.8-1.1,2.1-1.9c1.7,0,3.5,0.1,5.2,0.2C163.7,93.1,165,88.8,163,86.8z"/>
</g>
</svg>
