<?xml version="1.0" encoding="utf-8"?>
<!-- Generator: Adobe Illustrator 22.0.1, SVG Export Plug-In . SVG Version: 6.00 Build 0)  -->
<svg version="1.1" id="圖層_1" xmlns="http://www.w3.org/2000/svg" xmlns:xlink="http://www.w3.org/1999/xlink" x="0px" y="0px"
	 viewBox="0 0 370 100" style="enable-background:new 0 0 370 100;" xml:space="preserve">
<style type="text/css">
	.st0{fill:url(#SVGID_1_);}
</style>
<g>
	<linearGradient id="SVGID_1_" gradientUnits="userSpaceOnUse" x1="184.4608" y1="100" x2="184.4608" y2="0">
		<stop  offset="0" style="stop-color:#FFFFFF;stop-opacity:0.5"/>
		<stop  offset="1" style="stop-color:#FFFFFF"/>
	</linearGradient>
	<path class="st0" d="M1.4,55.5c0.5-6.9,1.8-13.8,4.4-20.3c9-22.9,35.6-40.2,60.3-34c15.3,3.8,28.7,14.5,35.9,28.4
		c4.2,8.1,7.3,18.2,15.8,21.5c15.5,6,29.1-16.3,45.6-15.3c10.8,0.7,18.1,10.7,24.8,19.2c6.7,8.5,16.3,15.3,26.4,11.5
		c3.1-1.2,5.7-3.4,8.7-5c9.7-5.2,26-4.1,35,2.2c9.1,6.4,14.8,23.6,24.2,27c10.3,3.7,25-1.6,34-1.5c19.8,0.2,34.2,2.3,51.2,10.7
		c0,0-290.1,0-313.4,0c-34,0-45.5-11.8-51.3-26.3C0.8,68,1,61.6,1.4,55.5z"/>
</g>
</svg>
