<?xml version="1.0" encoding="utf-8"?>
<!-- Generator: Adobe Illustrator 22.0.1, SVG Export Plug-In . SVG Version: 6.00 Build 0)  -->
<svg version="1.1" id="圖層_1" xmlns="http://www.w3.org/2000/svg" xmlns:xlink="http://www.w3.org/1999/xlink" x="0px" y="0px"
	 viewBox="0 0 254 30" style="enable-background:new 0 0 254 30;" xml:space="preserve">
<style type="text/css">
	.st0{fill:url(#SVGID_1_);}
</style>
<linearGradient id="SVGID_1_" gradientUnits="userSpaceOnUse" x1="9.605198e-02" y1="15" x2="253.9039" y2="15">
	<stop  offset="0" style="stop-color:#FFFFFF;stop-opacity:0.5"/>
	<stop  offset="1" style="stop-color:#FFFFFF"/>
</linearGradient>
<path class="st0" d="M252.8,18.2c-12.7-1.4-25.5-2.1-38.2-2.4c0,0,0,0,0,0c2.3-0.6-4.3-11.4-24.6-10.7c-7.4,0.3-12.6,5.5-20.4,5.7
	c-7.4,0.2-14.8-0.2-22.2-0.3c-13.9-0.2-27.8-0.6-41.7-0.8c-4-1.4-7.9-3-12-4.5C84.6,2,75.1,0.2,65.6,0C52.4-0.2,39.3,2.4,26.5,6.2
	c-1.5-1.3-3.2-2.4-5.3-2.9c-2.7-0.7-5.8-0.3-8.3,1.1c-1.6,0.1-3.3,0.4-4.9,1c-3.6,1.3-7.1,3.7-7.9,7.7C0,14,0.1,14.8,0.3,15.5
	c0,0.4,0,0.9,0.2,1.4C5.8,33.1,26,33.6,35.8,22.1c0.4-0.5,0.8-1,1.2-1.5c18.3-0.4,36.8,0.1,54.9,0.4c14.1,0.2,27.9,0.2,41.9-1.3
	c2.6-0.3,68.2,0.8,75.4,1.1c0.7,0.3,1.4,0.3,2,0.1c13.8,0.5,27.6,0.5,41.5-0.3C254.3,20.5,254.3,18.4,252.8,18.2z M47.4,14.1
	c-1.5,0-3.1,0.1-4.6,0.1c1.5-0.3,3-0.5,4.5-0.8C47.3,13.7,47.4,13.9,47.4,14.1z M186.5,15.3c0.1,0,0.3,0,0.4,0.1c-0.2,0-0.4,0-0.6,0
	C186.4,15.3,186.4,15.3,186.5,15.3z"/>
</svg>
